<svg xmlns="http://www.w3.org/2000/svg" viewBox="0 0 316.68 316.19"><defs><style>.cls-1{fill:#b26caa;}.cls-2{fill:#59ada8;}.cls-3{fill:#75c0e6;}.cls-4{fill:#efe363;}.cls-5{fill:#ee7177;}.cls-6{fill:#f29fbf;}</style></defs><title>Rainbow</title><g id="Capa_2" data-name="Capa 2"><g id="Capa_1-2" data-name="Capa 1"><path class="cls-1" d="M207.09,225.46a9.25,9.25,0,0,1-7.19-15.07,100.53,100.53,0,0,0,16-32c6.52-23.29,1.32-43.6-15.45-60.38s-36.86-21.64-59.59-14.35a96.22,96.22,0,0,0-30.49,16.73,9.25,9.25,0,1,1-12.19-13.91,114.75,114.75,0,0,1,37-20.43c29.44-9.45,56.52-2.92,78.32,18.88s28.62,49.06,20,79.08A118,118,0,0,1,214.28,222,9.23,9.23,0,0,1,207.09,225.46Z"/><path class="cls-1" d="M215,221l-15.82-9.59c.36-.58,35.56-60,2.41-94.92C185.27,99.32,165,94.4,141.27,101.88a105.32,105.32,0,0,0-32.35,17.29L97,105a124.29,124.29,0,0,1,38.69-20.76c30.58-9.65,58-2.9,79.29,19.51,18,19,23.6,45.51,16.14,76.77A155.21,155.21,0,0,1,215,221Z"/><path class="cls-2" d="M213.44,243.91a9.25,9.25,0,0,1-7.3-14.91,158.76,158.76,0,0,0,22.54-44.5c10-32.22,4.79-59.23-15.49-80.27-15.4-16-32.61-24.09-51.14-24.1h0c-37.55,0-69.53,32.66-69.85,33A9.25,9.25,0,0,1,78.83,100.3c1.51-1.57,37.6-38.63,83.1-38.67H162c23.77,0,45.47,10,64.5,29.76,25.08,26,31.88,60.3,19.68,99.12a175.22,175.22,0,0,1-25.43,49.82A9.23,9.23,0,0,1,213.44,243.91Z"/><path class="cls-3" d="M233.06,243.91a9.24,9.24,0,0,1-7.43-14.74,147.41,147.41,0,0,0,21-46.54c8.46-34.41.55-64-23.49-88.09S169.69,63,136,72.37a141.15,141.15,0,0,0-44.73,22,9.25,9.25,0,0,1-11.49-14.5A159,159,0,0,1,131,54.55c40.06-11.16,76.43-1.85,105.19,26.91s38.44,65.41,28.22,106.2a163.72,163.72,0,0,1-23.9,52.49A9.25,9.25,0,0,1,233.06,243.91Z"/><path class="cls-4" d="M237.08,267.82a9.25,9.25,0,0,1-7-15.25c.2-.23,20.21-24.06,30.23-56.92,13-42.64,3.73-80.12-27.55-111.41s-68.07-40-109.58-26c-32,10.74-55.09,31.5-55.32,31.71A9.25,9.25,0,0,1,55.35,76.25a190.13,190.13,0,0,1,61.32-35.39C150.33,29.43,200,25.41,245.8,71.16c36.14,36.14,47.2,81.26,32,130.48a194.73,194.73,0,0,1-33.66,62.93A9.22,9.22,0,0,1,237.08,267.82Z"/><path class="cls-5" d="M240.59,293.24a9.24,9.24,0,0,1-6.68-15.64c.26-.27,26.84-28.44,40.93-67.93,18.36-51.46,7.74-97.47-31.55-136.77-26-26-54.9-39.16-85.95-39.16h-.93C94.82,34.26,44,86.12,43.47,86.64A9.25,9.25,0,0,1,30.16,73.8c2.27-2.36,56.55-57.9,126-58.55,36.62-.37,70.32,14.65,100.24,44.57,56,56,50.3,116.08,35.69,156.64-15.51,43-43.6,72.69-44.78,73.93A9.22,9.22,0,0,1,240.59,293.24Z"/><path class="cls-6" d="M256.32,316.19a9.25,9.25,0,0,1-7.47-14.7c.27-.37,27.56-38.2,41.39-87.3C308.3,150.08,296,97.69,253.66,58.48c-45.12-41.8-98.63-51-159-27.32-46,18-78.66,49-79,49.26A9.25,9.25,0,1,1,2.86,67.05c1.43-1.37,35.66-33.77,85-53.11,66.63-26.11,128.31-15.4,178.37,31,47.28,43.8,61.69,104.25,41.67,174.8-14.82,52.18-42.92,91-44.11,92.68A9.25,9.25,0,0,1,256.32,316.19Z"/></g></g></svg>